<svg xmlns="http://www.w3.org/2000/svg" width="100" height="100" viewBox="0 0 100 100"><rect x="47" y="60" width="6" height="26" rx="3" fill="#F4EFE6"></rect><rect x="48.6" y="37" width="2.8" height="23" rx="1.4" fill="#F4EFE6" transform="rotate(-42.000 50 37)"></rect><rect x="48.6" y="37" width="2.8" height="23" rx="1.4" fill="#F4EFE6" transform="rotate(-31.500 50 37)"></rect><rect x="48.6" y="37" width="2.8" height="23" rx="1.4" fill="#F4EFE6" transform="rotate(-21.000 50 37)"></rect><rect x="48.6" y="37" width="2.8" height="23" rx="1.4" fill="#F4EFE6" transform="rotate(-10.500 50 37)"></rect><rect x="48.6" y="37" width="2.8" height="23" rx="1.4" fill="#F4EFE6" transform="rotate(0.000 50 37)"></rect><rect x="48.6" y="37" width="2.8" height="23" rx="1.4" fill="#F4EFE6" transform="rotate(10.500 50 37)"></rect><rect x="48.6" y="37" width="2.8" height="23" rx="1.4" fill="#F4EFE6" transform="rotate(21.000 50 37)"></rect><rect x="48.6" y="37" width="2.8" height="23" rx="1.4" fill="#F4EFE6" transform="rotate(31.500 50 37)"></rect><rect x="48.6" y="37" width="2.8" height="23" rx="1.4" fill="#F4EFE6" transform="rotate(42.000 50 37)"></rect><rect x="40" y="33" width="20" height="5" rx="2.5" fill="#F4EFE6"></rect><rect x="37" y="7" width="26" height="26" rx="3" transform="rotate(45 50 20)" fill="none" stroke="#F4EFE6" stroke-width="5" stroke-linejoin="round"></rect><rect x="44.54" y="14.54" width="10.92" height="10.92" rx="2" transform="rotate(45 50 20)" fill="#F4EFE6"></rect></svg>